<svg width="285" height="62" viewBox="0 0 285 62" fill="none" xmlns="http://www.w3.org/2000/svg">
    <path d="M75.0025 2.48C99.5823 2.48071 104.99 13.0404 104.99 26C104.99 13.0404 110.398 2.48071 134.977 2.48C134.844 15.3361 129.269 30.32 104.99 30.32C80.7108 30.32 75.1361 15.3361 75.0025 2.48Z" fill="#ACB63B"/>
    <path d="M75.0025 34.1599C99.5823 34.1606 104.99 44.7204 104.99 57.6799C104.99 44.7204 110.398 34.1606 134.977 34.1599C134.844 47.016 129.269 61.9999 104.99 61.9999C80.7108 61.9999 75.1361 47.016 75.0025 34.1599Z" fill="#659858"/>
    <path fill-rule="evenodd" clip-rule="evenodd" d="M156.03 58.5269C154.522 59.5039 152.479 60.5 150 60.5V51.5C150.02 51.5 150.33 51.4961 151.137 50.9731C151.909 50.4729 152.696 49.803 153.801 48.862C153.912 48.7679 154.025 48.6712 154.142 48.5716C154.182 48.5382 154.222 48.5042 154.262 48.4698C156.433 46.6221 160.103 43.5 164.995 43.5C169.855 43.5 173.237 46.5869 175.226 48.4029C175.326 48.4941 175.422 48.5822 175.515 48.6665C177.984 50.9049 178.921 51.5 179.99 51.5C181.058 51.5 181.996 50.9049 184.465 48.6665C184.558 48.5822 184.654 48.4941 184.754 48.4029C186.743 46.5869 190.125 43.5 194.985 43.5C199.877 43.5 203.546 46.6221 205.718 48.4698C205.758 48.5042 205.798 48.5382 205.838 48.5716C205.955 48.6712 206.068 48.7679 206.179 48.8619C207.284 49.803 208.071 50.4729 208.843 50.9731C209.65 51.4961 209.96 51.5 209.98 51.5V60.5C207.501 60.5 205.458 59.5039 203.95 58.5269C202.646 57.6821 201.384 56.6043 200.373 55.74C200.247 55.6326 200.126 55.5284 200.008 55.4284C197.458 53.2606 196.174 52.5 194.985 52.5C193.916 52.5 192.979 53.0951 190.51 55.3335C190.417 55.4178 190.321 55.5059 190.221 55.5971C188.231 57.4131 184.85 60.5 179.99 60.5C175.13 60.5 171.748 57.4131 169.759 55.5971C169.659 55.5059 169.563 55.4178 169.47 55.3335C167.001 53.0951 166.063 52.5 164.995 52.5C163.806 52.5 162.522 53.2606 159.972 55.4284C159.854 55.5284 159.732 55.6325 159.607 55.74C158.595 56.6043 157.334 57.6821 156.03 58.5269Z" fill="#4C7741"/>
    <path fill-rule="evenodd" clip-rule="evenodd" d="M156.03 15.5269C154.522 16.5039 152.479 17.5 150 17.5V8.5C150.02 8.5 150.33 8.49607 151.137 7.97314C151.909 7.47291 152.696 6.80297 153.801 5.86196C153.912 5.76792 154.025 5.67118 154.142 5.57162C154.182 5.53816 154.222 5.50422 154.262 5.46984C156.433 3.62211 160.103 0.5 164.995 0.5C169.855 0.5 173.237 3.58687 175.226 5.4029C175.326 5.49414 175.422 5.58218 175.515 5.66646C177.984 7.90487 178.921 8.5 179.99 8.5C181.058 8.5 181.996 7.90487 184.465 5.66646C184.558 5.58218 184.654 5.49415 184.754 5.4029C186.743 3.58688 190.125 0.5 194.985 0.5C199.877 0.5 203.546 3.62211 205.718 5.46985C205.758 5.50422 205.798 5.53816 205.838 5.57162C205.955 5.67116 206.068 5.7679 206.179 5.86193C207.284 6.80295 208.071 7.47291 208.843 7.97314C209.65 8.49607 209.96 8.5 209.98 8.5V17.5C207.501 17.5 205.458 16.5039 203.95 15.5269C202.646 14.6821 201.384 13.6043 200.373 12.74C200.247 12.6326 200.126 12.5284 200.008 12.4284C197.458 10.2606 196.174 9.5 194.985 9.5C193.916 9.5 192.979 10.0951 190.51 12.3335C190.417 12.4178 190.321 12.5059 190.221 12.5971C188.232 14.4131 184.85 17.5 179.99 17.5C175.13 17.5 171.748 14.4131 169.759 12.5971C169.659 12.5059 169.563 12.4178 169.47 12.3335C167.001 10.0951 166.063 9.5 164.995 9.5C163.806 9.5 162.522 10.2606 159.972 12.4284C159.854 12.5284 159.732 12.6325 159.607 12.74C158.595 13.6043 157.334 14.6821 156.03 15.5269Z" fill="#4C7741"/>
    <path fill-rule="evenodd" clip-rule="evenodd" d="M156.234 35.7305C154.747 36.8141 152.632 38 150 38V29C149.977 29 149.966 29.0018 149.966 29.0017C149.966 29.0014 150.246 28.958 150.933 28.457C151.708 27.8923 152.5 27.1334 153.606 26.0742C153.716 25.9685 153.83 25.8598 153.947 25.748C155.107 24.6378 156.6 23.2317 158.307 22.1276C160.062 20.9923 162.305 20 164.995 20C170.023 20 173.46 23.5381 175.393 25.5283C175.502 25.6407 175.606 25.7482 175.706 25.8499C178.254 28.4492 179.129 29 179.99 29C180.851 29 181.726 28.4492 184.274 25.8499C184.374 25.7482 184.478 25.6407 184.587 25.5283C186.52 23.5381 189.957 20 194.985 20C197.675 20 199.917 20.9923 201.673 22.1276C203.38 23.2317 204.872 24.6378 206.033 25.748C206.15 25.8598 206.263 25.9685 206.374 26.0741C207.479 27.1334 208.272 27.8923 209.047 28.457C209.734 28.958 210.014 29.0014 210.014 29.0017C210.014 29.0018 210.002 29 209.98 29V38C207.348 38 205.233 36.8141 203.746 35.7305C202.445 34.7821 201.189 33.5747 200.178 32.6031C200.052 32.482 199.93 32.3647 199.812 32.252C198.621 31.1122 197.687 30.2683 196.785 29.6849C195.931 29.1327 195.381 29 194.985 29C194.124 29 193.249 29.5508 190.701 32.1501C190.601 32.2518 190.497 32.3593 190.388 32.4717C188.454 34.4619 185.018 38 179.99 38C174.962 38 171.525 34.4619 169.592 32.4717C169.483 32.3593 169.379 32.2518 169.279 32.1501C166.731 29.5508 165.856 29 164.995 29C164.599 29 164.048 29.1327 163.195 29.6849C162.292 30.2683 161.359 31.1122 160.168 32.252C160.05 32.3647 159.928 32.482 159.802 32.603C158.791 33.5747 157.535 34.7821 156.234 35.7305Z" fill="#ACB63B"/>
    <path fill-rule="evenodd" clip-rule="evenodd" d="M29.9899 62C46.5529 62 59.9799 48.5685 59.9799 32C59.9799 15.4315 46.5529 2 29.9899 2C13.427 2 0 15.4315 0 32C0 48.5685 13.427 62 29.9899 62ZM30.4898 54C42.912 54 52.9822 43.9264 52.9822 31.5C52.9822 19.0736 42.912 9 30.4898 9C18.0675 9 7.99732 19.0736 7.99732 31.5C7.99732 43.9264 18.0675 54 30.4898 54Z" fill="#4C7741"/>
    <ellipse cx="30.4898" cy="31.5" rx="12.4958" ry="12.5" fill="#ACB63B"/>
    <path d="M225.002 0.508475C249.582 0.509229 254.99 14.8733 254.99 28.6017L255.005 30L255.99 30C280.269 30 284.844 45.8728 284.977 59.4915C260.398 59.4908 254.99 45.1267 254.99 31.3983C254.99 45.1267 249.582 59.4908 225.002 59.4915C225.136 45.8728 229.711 30 253.99 30C229.711 30 225.136 14.1272 225.002 0.508475Z" fill="#659858"/>
    <path d="M255.005 30C255.005 17.0404 258.506 0.48 284.992 0.48C284.51 16 279.284 30 255.005 30Z" fill="#ACB63B"/>
</svg>
