<svg aria-hidden="true" width="136" height="135" viewBox="0 0 136 135" fill="none" xmlns="http://www.w3.org/2000/svg">
    <path d="M74.9874 0.48C99.563 0.480712 104.97 11.0404 104.97 24C104.97 11.0404 110.377 0.480712 134.952 0.48C134.819 13.3361 129.245 28.32 104.97 28.32C80.6947 28.32 75.121 13.3361 74.9874 0.48Z" fill="#FCFCFC"/>
    <path d="M74.9874 32.1599C99.563 32.1606 104.97 42.7204 104.97 55.6799C104.97 42.7204 110.377 32.1606 134.952 32.1599C134.819 45.016 129.245 59.9999 104.97 59.9999C80.6947 59.9999 75.121 45.016 74.9874 32.1599Z" fill="#FCFCFC"/>
    <path fill-rule="evenodd" clip-rule="evenodd" d="M81.0373 128.527C79.5291 129.504 77.4866 130.5 75.0075 130.5V121.5C75.0272 121.5 75.3366 121.496 76.1437 120.973C76.9158 120.473 77.7024 119.803 78.8072 118.862C78.9177 118.768 79.0312 118.671 79.1483 118.572C79.1877 118.538 79.2276 118.504 79.268 118.47C81.4391 116.622 85.108 113.5 90 113.5C94.8596 113.5 98.241 116.587 100.23 118.403C100.33 118.494 100.426 118.582 100.519 118.667C102.988 120.905 103.925 121.5 104.992 121.5C106.06 121.5 106.997 120.905 109.466 118.667C109.558 118.582 109.655 118.494 109.755 118.403C111.744 116.587 115.125 113.5 119.985 113.5C124.877 113.5 128.546 116.622 130.717 118.47C130.757 118.504 130.797 118.538 130.836 118.572C130.954 118.671 131.067 118.768 131.178 118.862C132.282 119.803 133.069 120.473 133.841 120.973C134.648 121.496 134.958 121.5 134.977 121.5V130.5C132.498 130.5 130.456 129.504 128.948 128.527C127.644 127.682 126.383 126.604 125.371 125.74C125.246 125.632 125.124 125.528 125.006 125.428C122.457 123.26 121.173 122.5 119.985 122.5C118.917 122.5 117.98 123.095 115.512 125.333C115.419 125.418 115.322 125.506 115.222 125.597C113.233 127.413 109.852 130.5 104.992 130.5C100.133 130.5 96.7514 127.413 94.7624 125.597C94.6625 125.506 94.566 125.418 94.4731 125.333C92.0048 123.095 91.0676 122.5 90 122.5C88.8114 122.5 87.5279 123.26 84.9785 125.428C84.8609 125.528 84.7391 125.632 84.6133 125.74C83.6022 126.604 82.3412 127.682 81.0373 128.527Z" fill="#FCFCFC"/>
    <path fill-rule="evenodd" clip-rule="evenodd" d="M81.0373 85.5267C79.5291 86.5038 77.4866 87.5 75.0075 87.5V78.5C75.0272 78.5 75.3366 78.4962 76.1437 77.9733C76.9158 77.4731 77.7024 76.8032 78.8072 75.8622C78.9177 75.7682 79.0312 75.6714 79.1483 75.5719C79.1877 75.5384 79.2276 75.5044 79.268 75.47C81.4391 73.6223 85.108 70.5 90 70.5C94.8596 70.5 98.241 73.5871 100.23 75.4031C100.33 75.4944 100.426 75.5824 100.519 75.6667C102.988 77.9053 103.925 78.5 104.992 78.5C106.06 78.5 106.997 77.9053 109.466 75.6667C109.558 75.5824 109.655 75.4944 109.755 75.4031C111.744 73.5872 115.125 70.5 119.985 70.5C124.877 70.5 128.546 73.6223 130.717 75.47C130.757 75.5044 130.797 75.5384 130.836 75.5719C130.954 75.6714 131.067 75.7682 131.178 75.8622C132.282 76.8032 133.069 77.4731 133.841 77.9733C134.648 78.4962 134.958 78.5 134.977 78.5V87.5C132.498 87.5 130.456 86.5038 128.948 85.5267C127.644 84.6819 126.383 83.604 125.371 82.7398C125.246 82.6323 125.124 82.5281 125.006 82.4281C122.457 80.2603 121.173 79.5 119.985 79.5C118.917 79.5 117.98 80.0947 115.512 82.3333C115.419 82.4176 115.322 82.5056 115.222 82.5969C113.233 84.4128 109.852 87.5 104.992 87.5C100.133 87.5 96.7514 84.4129 94.7624 82.5969C94.6625 82.5056 94.566 82.4176 94.4731 82.3333C92.0048 80.0947 91.0676 79.5 90 79.5C88.8114 79.5 87.5279 80.2603 84.9785 82.4281C84.8609 82.5281 84.7391 82.6323 84.6133 82.7398C83.6022 83.604 82.3412 84.6819 81.0373 85.5267Z" fill="#FCFCFC"/>
    <path fill-rule="evenodd" clip-rule="evenodd" d="M81.241 105.73C79.7543 106.814 77.6391 108 75.0075 108V99C74.9848 99 74.9729 99.0018 74.9729 99.0017C74.9728 99.0015 75.253 98.9579 75.94 98.4572C76.7146 97.8926 77.5067 97.1337 78.6122 96.0744C78.7225 95.9688 78.8359 95.8601 78.9527 95.7483C80.1133 94.6381 81.6056 93.2319 83.3124 92.1278C85.0676 90.9925 87.31 90 90 90C95.0276 90 98.464 93.5384 100.397 95.5285C100.506 95.641 100.61 95.7485 100.71 95.8502C103.258 98.4496 104.133 99 104.992 99C105.852 99 106.727 98.4496 109.275 95.8502C109.374 95.7485 109.479 95.641 109.588 95.5285C111.521 93.5384 114.957 90 119.985 90C122.675 90 124.917 90.9925 126.672 92.1278C128.379 93.2319 129.872 94.6381 131.032 95.7483C131.149 95.8601 131.262 95.9687 131.373 96.0744C132.478 97.1337 133.27 97.8926 134.045 98.4572C134.732 98.9579 135.012 99.0015 135.012 99.0017C135.012 99.0018 135 99 134.977 99V108C132.346 108 130.23 106.814 128.744 105.73C127.442 104.782 126.187 103.574 125.176 102.603C125.051 102.482 124.929 102.364 124.811 102.252C123.619 101.112 122.686 100.268 121.784 99.6847C120.931 99.1325 120.381 99 119.985 99C119.125 99 118.25 99.5504 115.702 102.15C115.603 102.251 115.498 102.359 115.389 102.472C113.456 104.462 110.02 108 104.992 108C99.9648 108 96.5284 104.462 94.5957 102.472C94.4864 102.359 94.382 102.251 94.2824 102.15C91.7346 99.5504 90.8598 99 90 99C89.6041 99 89.0542 99.1325 88.2006 99.6847C87.2986 100.268 86.3656 101.112 85.1741 102.252C85.0563 102.364 84.9343 102.482 84.8084 102.603C83.798 103.574 82.5423 104.782 81.241 105.73Z" fill="#FCFCFC"/>
    <path fill-rule="evenodd" clip-rule="evenodd" d="M29.9849 60C46.5451 60 59.9698 46.5685 59.9698 30C59.9698 13.4315 46.5451 0 29.9849 0C13.4247 0 0 13.4315 0 30C0 46.5685 13.4247 60 29.9849 60ZM30.4846 52C42.9048 52 52.9733 41.9264 52.9733 29.5C52.9733 17.0736 42.9048 7 30.4846 7C18.0645 7 7.99597 17.0736 7.99597 29.5C7.99597 41.9264 18.0645 52 30.4846 52Z" fill="#FCFCFC"/>
    <ellipse cx="30.4846" cy="29.5" rx="12.4937" ry="12.5" fill="#FCFCFC"/>
    <path d="M0.00248721 75.5085C24.5781 75.5092 29.9849 89.8733 29.9849 103.602L30 105L30.9844 105C55.2594 105 59.8337 120.873 59.9673 134.492C35.3916 134.491 29.9849 120.127 29.9849 106.398C29.9849 120.127 24.5781 134.491 0.00248721 134.492C0.136123 120.873 4.71037 105 28.9854 105C4.71037 105 0.136123 89.1272 0.00248721 75.5085Z" fill="#FCFCFC"/>
    <path d="M30 105C30 92.0404 33.5 75.48 59.9824 75.48C59.5 91 54.275 105 30 105Z" fill="#FCFCFC"/>
</svg>
